<svg width="90" height="90" viewBox="0 0 90 90" fill="none" xmlns="http://www.w3.org/2000/svg">
<circle cx="45" cy="45" r="45" fill="url(#paint0_linear_369_5)"/>
<path d="M36.4583 62.7087H53.5416V56.0941C53.5416 53.6635 52.7169 51.5715 51.0676 49.818C49.4183 48.0646 47.3958 47.1878 44.9999 47.1878C42.6041 47.1878 40.5815 48.0646 38.9322 49.818C37.2829 51.5715 36.4583 53.6635 36.4583 56.0941V62.7087ZM44.9999 42.8128C47.3958 42.8128 49.4183 41.9361 51.0676 40.1826C52.7169 38.4291 53.5416 36.3198 53.5416 33.8545V27.292H36.4583V33.8545C36.4583 36.3198 37.2829 38.4291 38.9322 40.1826C40.5815 41.9361 42.6041 42.8128 44.9999 42.8128ZM28.3333 65.8337V62.7087H33.3333V56.0941C33.3333 53.6635 33.9669 51.4326 35.2343 49.4014C36.5017 47.3701 38.2638 45.9031 40.5208 45.0003C38.2638 44.0975 36.5017 42.6219 35.2343 40.5732C33.9669 38.5246 33.3333 36.285 33.3333 33.8545V27.292H28.3333V24.167H61.6666V27.292H56.6666V33.8545C56.6666 36.285 56.0329 38.5246 54.7655 40.5732C53.4982 42.6219 51.736 44.0975 49.4791 45.0003C51.736 45.9031 53.4982 47.3701 54.7655 49.4014C56.0329 51.4326 56.6666 53.6635 56.6666 56.0941V62.7087H61.6666V65.8337H28.3333Z" fill="#3D424A"/>
<defs>
<linearGradient id="paint0_linear_369_5" x1="68.4" y1="83.7" x2="14.85" y2="12.15" gradientUnits="userSpaceOnUse">
<stop stop-color="#00B733"/>
<stop offset="1" stop-color="#B8EB78"/>
</linearGradient>
</defs>
</svg>
