<svg width="90" height="90" viewBox="0 0 90 90" fill="none" xmlns="http://www.w3.org/2000/svg">
<circle cx="45" cy="45" r="45" fill="url(#paint0_linear_357_3)"/>
<path d="M20 39.5625C20 36.1875 20.7948 32.9896 22.3843 29.9688C23.9738 26.9479 26.2412 24.375 29.1865 22.25L32.0617 25.0625C29.5839 26.8542 27.6554 29.0104 26.2763 31.5312C24.8971 34.0521 24.2076 36.7292 24.2076 39.5625H20ZM65.7924 39.5625C65.7924 36.7292 65.1379 34.0521 63.8289 31.5312C62.5199 29.0104 60.6265 26.8542 58.1487 25.0625L61.0238 22.25C63.9224 24.4167 66.1431 27 67.6858 30C69.2286 33 70 36.1875 70 39.5625H65.7924ZM22.5245 62.5V58.75H28.4151V39.625C28.4151 36.125 29.5722 33.0104 31.8864 30.2812C34.2006 27.5521 37.2511 25.8333 41.0379 25.125V23.3125C41.0379 22.3542 41.4236 21.5625 42.195 20.9375C42.9663 20.3125 43.8897 20 44.9649 20C46.0402 20 46.9635 20.3125 47.7349 20.9375C48.5063 21.5625 48.892 22.3542 48.892 23.3125V25.125C52.6788 25.8333 55.741 27.5521 58.0785 30.2812C60.4161 33.0104 61.5849 36.125 61.5849 39.625V58.75H67.4053V62.5H22.5245ZM44.9649 70C43.4689 70 42.1599 69.5104 41.0379 68.5312C39.9158 67.5521 39.3548 66.375 39.3548 65H50.575C50.575 66.375 50.0257 67.5521 48.9271 68.5312C47.8284 69.5104 46.5077 70 44.9649 70ZM32.6227 58.75H57.3773V39.625C57.3773 36.5417 56.1851 33.9167 53.8008 31.75C51.4166 29.5833 48.4946 28.5 45.0351 28.5C41.5755 28.5 38.6419 29.5833 36.2342 31.75C33.8266 33.9167 32.6227 36.5417 32.6227 39.625V58.75Z" fill="#3D424A"/>
<defs>
<linearGradient id="paint0_linear_357_3" x1="68.4" y1="83.7" x2="14.85" y2="12.15" gradientUnits="userSpaceOnUse">
<stop stop-color="#57BEE6"/>
<stop offset="1" stop-color="#94E1FF"/>
</linearGradient>
</defs>
</svg>
