<svg width="45" height="45" viewBox="0 0 50 50" fill="none" xmlns="http://www.w3.org/2000/svg">
<circle cx="25" cy="25" r="25" fill="#3D424A"/>
<path d="M13.6666 34.9163V32.7913H16.6416V21.9538C16.6416 19.9705 17.226 18.2056 18.3948 16.659C19.5635 15.1125 21.1041 14.1386 23.0166 13.7372V12.7101C23.0166 12.167 23.2114 11.7184 23.601 11.3643C23.9906 11.0101 24.4569 10.833 25 10.833C25.543 10.833 26.0093 11.0101 26.3989 11.3643C26.7885 11.7184 26.9833 12.167 26.9833 12.7101V13.7372C28.8958 14.1386 30.4423 15.1125 31.6229 16.659C32.8034 18.2056 33.3937 19.9705 33.3937 21.9538V32.7913H36.3333V34.9163H13.6666ZM25 39.1663C24.2444 39.1663 23.5833 38.8889 23.0166 38.334C22.45 37.7792 22.1666 37.1122 22.1666 36.333H27.8333C27.8333 37.1122 27.5559 37.7792 27.001 38.334C26.4461 38.8889 25.7791 39.1663 25 39.1663ZM18.7666 32.7913H31.2687V21.9538C31.2687 20.2066 30.6666 18.7191 29.4625 17.4913C28.2583 16.2636 26.7826 15.6497 25.0354 15.6497C23.2882 15.6497 21.8066 16.2636 20.5906 17.4913C19.3746 18.7191 18.7666 20.2066 18.7666 21.9538V32.7913Z" fill="white"/>
</svg>
