<svg width="45" height="45" viewBox="0 0 50 50" fill="none" xmlns="http://www.w3.org/2000/svg">
<circle cx="25" cy="25" r="25" fill="#3D424A"/>
<path d="M21.7417 39.1663L21.0334 34.7038C20.5848 34.5386 20.1125 34.3143 19.6167 34.0309C19.1209 33.7476 18.6841 33.4525 18.3063 33.1455L14.1271 35.058L10.8334 29.2497L14.6584 26.4518C14.6112 26.2393 14.5816 25.9972 14.5698 25.7257C14.558 25.4542 14.5521 25.2122 14.5521 24.9997C14.5521 24.7872 14.558 24.5452 14.5698 24.2736C14.5816 24.0021 14.6112 23.7601 14.6584 23.5476L10.8334 20.7497L14.1271 14.9413L18.3063 16.8538C18.6841 16.5469 19.1209 16.2518 19.6167 15.9684C20.1125 15.6851 20.5848 15.4726 21.0334 15.3309L21.7417 10.833H28.2584L28.9667 15.2955C29.4153 15.4608 29.8934 15.6792 30.4011 15.9507C30.9087 16.2222 31.3396 16.5233 31.6938 16.8538L35.873 14.9413L39.1667 20.7497L35.3417 23.4768C35.3889 23.7129 35.4184 23.9667 35.4302 24.2382C35.4421 24.5097 35.448 24.7636 35.448 24.9997C35.448 25.2358 35.4421 25.4837 35.4302 25.7434C35.4184 26.0031 35.3889 26.2511 35.3417 26.4872L39.1667 29.2497L35.873 35.058L31.6938 33.1455C31.316 33.4525 30.8851 33.7535 30.4011 34.0486C29.9171 34.3438 29.4389 34.5622 28.9667 34.7038L28.2584 39.1663H21.7417ZM25 29.6038C26.275 29.6038 27.3612 29.1552 28.2584 28.258C29.1556 27.3608 29.6042 26.2747 29.6042 24.9997C29.6042 23.7247 29.1556 22.6386 28.2584 21.7413C27.3612 20.8441 26.275 20.3955 25 20.3955C23.725 20.3955 22.6389 20.8441 21.7417 21.7413C20.8445 22.6386 20.3959 23.7247 20.3959 24.9997C20.3959 26.2747 20.8445 27.3608 21.7417 28.258C22.6389 29.1552 23.725 29.6038 25 29.6038ZM25 27.4788C24.3153 27.4788 23.7309 27.2368 23.2469 26.7528C22.7629 26.2688 22.5209 25.6844 22.5209 24.9997C22.5209 24.315 22.7629 23.7306 23.2469 23.2465C23.7309 22.7625 24.3153 22.5205 25 22.5205C25.6848 22.5205 26.2691 22.7625 26.7532 23.2465C27.2372 23.7306 27.4792 24.315 27.4792 24.9997C27.4792 25.6844 27.2372 26.2688 26.7532 26.7528C26.2691 27.2368 25.6848 27.4788 25 27.4788ZM23.4417 37.0413H26.5584L27.0542 33.0747C27.8334 32.8858 28.5712 32.5906 29.2677 32.1893C29.9643 31.7879 30.5959 31.3038 31.1625 30.7372L34.9167 32.3663L36.3334 29.8163L33.0042 27.3726C33.0987 26.9712 33.1754 26.5757 33.2344 26.1861C33.2934 25.7965 33.323 25.4011 33.323 24.9997C33.323 24.5983 33.2993 24.2028 33.2521 23.8132C33.2049 23.4236 33.1223 23.0281 33.0042 22.6268L36.3334 20.183L34.9167 17.633L31.1625 19.2622C30.6195 18.6483 30.0056 18.1347 29.3209 17.7215C28.6362 17.3084 27.8806 17.0427 27.0542 16.9247L26.5584 12.958H23.4417L22.9459 16.9247C22.1431 17.09 21.3934 17.3733 20.6969 17.7747C20.0004 18.1761 19.3806 18.6719 18.8375 19.2622L15.0834 17.633L13.6667 20.183L16.9959 22.6268C16.9014 23.0281 16.8247 23.4236 16.7657 23.8132C16.7066 24.2028 16.6771 24.5983 16.6771 24.9997C16.6771 25.4011 16.7066 25.7965 16.7657 26.1861C16.8247 26.5757 16.9014 26.9712 16.9959 27.3726L13.6667 29.8163L15.0834 32.3663L18.8375 30.7372C19.4042 31.3038 20.0358 31.7879 20.7323 32.1893C21.4289 32.5906 22.1667 32.8858 22.9459 33.0747L23.4417 37.0413Z" fill="white"/>
</svg>
