<svg width="80" height="80" viewBox="0 0 100 100" fill="none" xmlns="http://www.w3.org/2000/svg">
<path d="M51.9212 15.4101C60.4392 23.6373 77.8944 26.9642 70.6398 37.2523C61.9846 49.5267 55.0934 49.6182 35.7293 60.581C9.66326 75.3381 17.0302 53.5658 24.4781 26.5311C31.8511 6.22106 43.4032 7.183 51.9212 15.4101Z" fill="#FEAE49"/>
<path d="M93.8479 41.8785C98.0179 48.6454 77.2038 74.1553 55.4996 83.3007C33.7954 92.4461 9.68653 76.6829 7.37105 67.9462C5.05556 59.2094 28.2602 64.3426 49.9644 55.1972C70.7367 47.9988 89.0587 34.1069 93.8479 41.8785Z" fill="#57BEE6"/>
<path d="M69.2728 7.49003C88.735 0.0252411 93.4808 47.0252 73.9823 60.7605C54.4839 74.4958 12.0087 76.0852 7.98094 69.303C3.95319 62.5209 18.0495 56.8033 37.5479 43.068C57.0464 29.3327 51.1473 17.0118 69.2728 7.49003Z" fill="#3D424A"/>
</svg>
