<svg width="16" height="16" viewBox="0 0 16 16" fill="none" xmlns="http://www.w3.org/2000/svg">
<path d="M8.30735 2.46585C9.67023 3.78218 12.4631 4.31449 11.3023 5.96057C9.9175 7.92447 8.81491 7.93911 5.71665 9.69315C1.54609 12.0543 2.7248 8.57072 3.91647 4.24519C5.09614 0.9956 6.94447 1.14951 8.30735 2.46585Z" fill="#FEAE49"/>
<path d="M15.0157 6.70058C15.6829 7.78327 12.3527 11.8648 8.87998 13.3281C5.40731 14.7913 1.5499 12.2693 1.17942 10.8714C0.808944 9.47351 4.52168 10.2948 7.99435 8.83156C11.3179 7.67983 14.2494 5.45713 15.0157 6.70058Z" fill="#57BEE6"/>
<path d="M11.0836 1.19864C14.1976 0.00427709 14.9569 7.52423 11.8372 9.72187C8.71742 11.9195 1.92139 12.1738 1.27695 11.0887C0.63251 10.0035 2.88791 9.08872 6.00767 6.89109C9.12742 4.69345 8.18357 2.72211 11.0836 1.19864Z" fill="#3D424A"/>
</svg>
