<svg width="60" height="60" viewBox="0 0 70 70" fill="none" xmlns="http://www.w3.org/2000/svg">
<circle cx="35" cy="35" r="35" fill="#3D424A"/>
<path d="M17.5042 47.6662V43.9454C17.5042 43.0218 17.7417 42.1839 18.2167 41.4318C18.6917 40.6798 19.3514 40.119 20.1958 39.7495C22.1222 38.9051 23.8573 38.2982 25.401 37.9287C26.9448 37.5593 28.5347 37.3745 30.1708 37.3745C31.8069 37.3745 33.3903 37.5593 34.9208 37.9287C36.4514 38.2982 38.1798 38.9051 40.1062 39.7495C40.9507 40.119 41.617 40.6798 42.1052 41.4318C42.5934 42.1839 42.8375 43.0218 42.8375 43.9454V47.6662H17.5042ZM45.2125 47.6662V43.9454C45.2125 42.2829 44.7903 40.9173 43.9458 39.8485C43.1014 38.7798 41.993 37.9155 40.6208 37.2558C42.4417 37.4669 44.1569 37.777 45.7666 38.186C47.3764 38.595 48.6826 39.0634 49.6854 39.5912C50.5562 40.0926 51.2423 40.7127 51.7437 41.4516C52.2451 42.1905 52.4958 43.0218 52.4958 43.9454V47.6662H45.2125ZM30.1708 34.96C28.4292 34.96 27.0042 34.4058 25.8958 33.2975C24.7875 32.1891 24.2333 30.7641 24.2333 29.0225C24.2333 27.2808 24.7875 25.8558 25.8958 24.7475C27.0042 23.6391 28.4292 23.085 30.1708 23.085C31.9125 23.085 33.3375 23.6391 34.4458 24.7475C35.5541 25.8558 36.1083 27.2808 36.1083 29.0225C36.1083 30.7641 35.5541 32.1891 34.4458 33.2975C33.3375 34.4058 31.9125 34.96 30.1708 34.96ZM44.4208 29.0225C44.4208 30.7641 43.8667 32.1891 42.7583 33.2975C41.65 34.4058 40.225 34.96 38.4833 34.96C38.193 34.96 37.8698 34.9402 37.5135 34.9006C37.1573 34.861 36.834 34.7884 36.5437 34.6829C37.1771 34.0232 37.6587 33.2117 37.9885 32.2485C38.3184 31.2853 38.4833 30.21 38.4833 29.0225C38.4833 27.835 38.3184 26.786 37.9885 25.8756C37.6587 24.9652 37.1771 24.1273 36.5437 23.362C36.834 23.2829 37.1573 23.2169 37.5135 23.1641C37.8698 23.1114 38.193 23.085 38.4833 23.085C40.225 23.085 41.65 23.6391 42.7583 24.7475C43.8667 25.8558 44.4208 27.2808 44.4208 29.0225ZM19.8792 45.2912H40.4625V43.9454C40.4625 43.5232 40.3371 43.1141 40.0864 42.7183C39.8357 42.3225 39.5257 42.0454 39.1562 41.887C37.2562 41.0426 35.6597 40.4752 34.3667 40.185C33.0736 39.8947 31.675 39.7495 30.1708 39.7495C28.6667 39.7495 27.2614 39.8947 25.9552 40.185C24.6489 40.4752 23.0458 41.0426 21.1458 41.887C20.7764 42.0454 20.4729 42.3225 20.2354 42.7183C19.9979 43.1141 19.8792 43.5232 19.8792 43.9454V45.2912ZM30.1708 32.585C31.2 32.585 32.051 32.2485 32.7239 31.5756C33.3969 30.9027 33.7333 30.0516 33.7333 29.0225C33.7333 27.9933 33.3969 27.1423 32.7239 26.4693C32.051 25.7964 31.2 25.46 30.1708 25.46C29.1417 25.46 28.2906 25.7964 27.6177 26.4693C26.9448 27.1423 26.6083 27.9933 26.6083 29.0225C26.6083 30.0516 26.9448 30.9027 27.6177 31.5756C28.2906 32.2485 29.1417 32.585 30.1708 32.585Z" fill="white"/>
</svg>
