<svg width="90" height="90" viewBox="0 0 90 90" fill="none" xmlns="http://www.w3.org/2000/svg">
<circle cx="45" cy="45" r="45" transform="rotate(-90 45 45)" fill="url(#paint0_linear_357_2)"/>
<path d="M23.75 25H66.25C67.2083 25 68.0729 25.3854 68.8438 26.1562C69.6146 26.9271 70 27.7917 70 28.75V61.25C70 62.2083 69.6146 63.0729 68.8438 63.8438C68.0729 64.6146 67.2083 65 66.25 65H45V61.25H66.25V28.75H23.75V39.75H20V28.75C20 27.7917 20.375 26.9271 21.125 26.1562C21.875 25.3854 22.75 25 23.75 25ZM20 65H26.25C26.25 63.1945 25.6424 61.6597 24.4271 60.3958C23.2118 59.1319 21.7361 58.5 20 58.5V65ZM30 65H33.75C33.75 61.125 32.4159 57.8229 29.7478 55.0938C27.0796 52.3646 23.8304 51 20 51V54.75C22.7917 54.75 25.1562 55.7494 27.0938 57.7481C29.0312 59.7469 30 62.1642 30 65ZM20 43.5V47.25C22.4583 47.25 24.7456 47.7188 26.8619 48.6562C28.9782 49.5938 30.8199 50.8602 32.3869 52.4556C33.954 54.051 35.1979 55.926 36.1187 58.0806C37.0396 60.2352 37.5 62.5417 37.5 65H41.25C41.25 62.0362 40.6986 59.2515 39.5958 56.6459C38.4929 54.0403 36.9825 51.7605 35.0645 49.8063C33.1465 47.8521 30.8927 46.3125 28.3031 45.1875C25.7134 44.0625 22.9457 43.5 20 43.5Z" fill="#3D424A"/>
<defs>
<linearGradient id="paint0_linear_357_2" x1="68.4" y1="83.7" x2="14.85" y2="12.15" gradientUnits="userSpaceOnUse">
<stop stop-color="#FBCE5C"/>
<stop offset="1" stop-color="#FFC883"/>
</linearGradient>
</defs>
</svg>
